<svg width="102" height="102" viewBox="0 0 102 102" fill="none" xmlns="http://www.w3.org/2000/svg">
<g clip-path="url(#clip0_27813_1231)">
<path fill-rule="evenodd" clip-rule="evenodd" d="M65.167 29.7975C60.9736 26.9956 56.0434 25.5 51 25.5V0C61.0868 0 70.9471 2.9911 79.3341 8.59506C87.721 14.199 94.2577 22.1641 98.1179 31.4831C101.978 40.802 102.988 51.0566 101.02 60.9496C99.0522 70.8426 94.195 79.93 87.0624 87.0624C79.93 94.195 70.8426 99.0522 60.9496 101.02C51.0566 102.988 40.802 101.978 31.4831 98.1179C22.1641 94.2577 14.199 87.721 8.59506 79.3341C2.9911 70.9471 0 61.0868 0 51H25.5C25.5 56.0434 26.9956 60.9736 29.7975 65.167C32.5995 69.3605 36.582 72.6288 41.2417 74.5589C45.901 76.489 51.0283 76.9939 55.9748 76.0099C60.9213 75.0261 65.4649 72.5975 69.0313 69.0313C72.5975 65.4649 75.0261 60.9213 76.0099 55.9748C76.9939 51.0283 76.489 45.901 74.5589 41.2417C72.6288 36.582 69.3605 32.5995 65.167 29.7975Z" fill="#B4B4B4" fill-opacity="0.1"/>
<path fill-rule="evenodd" clip-rule="evenodd" d="M25.5 1.10447e-05C25.5 3.34872 24.8404 6.66464 23.5589 9.75843C22.2774 12.8522 20.3991 15.6633 18.0312 18.0312C15.6633 20.3991 12.8522 22.2774 9.75843 23.559C6.66462 24.8404 3.3487 25.5 1.11463e-06 25.5L0 51C6.69741 51 13.3292 49.6809 19.5169 47.1179C25.7045 44.5549 31.3267 40.7982 36.0623 36.0624C40.7982 31.3268 44.5549 25.7045 47.1179 19.5169C49.6809 13.3292 51 6.69741 51 0L25.5 1.10447e-05Z" fill="#B4B4B4" fill-opacity="0.1"/>
</g>
<defs>
<clipPath id="clip0_27813_1231">
<rect width="102" height="102" fill="white"/>
</clipPath>
</defs>
</svg>
