<svg width="36" height="35" viewBox="0 0 36 35" fill="none" xmlns="http://www.w3.org/2000/svg">
<g clip-path="url(#clip0_27813_1169)">
<path fill-rule="evenodd" clip-rule="evenodd" d="M22.8612 10.2246C21.4223 9.26319 19.7306 8.75 18 8.75V0C21.4611 0 24.8446 1.02636 27.7225 2.94928C30.6004 4.8722 32.8433 7.60533 34.1679 10.803C35.4924 14.0007 35.839 17.5194 35.1637 20.9141C34.4885 24.3087 32.8218 27.427 30.3743 29.8743C27.927 32.3218 24.8087 33.9885 21.4141 34.6637C18.0194 35.339 14.5007 34.9924 11.303 33.6679C8.10533 32.3433 5.3722 30.1004 3.44928 27.2225C1.52636 24.3446 0.5 20.9611 0.5 17.5H9.25C9.25 19.2306 9.76319 20.9223 10.7246 22.3612C11.6861 23.8002 13.0527 24.9217 14.6516 25.584C16.2504 26.2462 18.0097 26.4195 19.707 26.0818C21.4044 25.7442 22.9634 24.9109 24.1872 23.6872C25.4109 22.4634 26.2442 20.9044 26.5818 19.207C26.9195 17.5097 26.7462 15.7504 26.084 14.1516C25.4217 12.5527 24.3002 11.1861 22.8612 10.2246Z" fill="url(#paint0_linear_27813_1169)"/>
<path fill-rule="evenodd" clip-rule="evenodd" d="M9.25 3.78985e-06C9.25 1.14907 9.02368 2.28689 8.58395 3.34848C8.14422 4.41008 7.4997 5.37467 6.68718 6.18719C5.87467 6.99971 4.91008 7.64422 3.84848 8.08395C2.78688 8.52368 1.64906 8.75 0.5 8.75L0.5 17.5C2.79813 17.5 5.07376 17.0474 7.19697 16.1679C9.32017 15.2884 11.2494 13.9994 12.8743 12.3743C14.4994 10.7494 15.7884 8.82018 16.6679 6.69696C17.5474 4.57376 18 2.29813 18 0L9.25 3.78985e-06Z" fill="url(#paint1_linear_27813_1169)"/>
</g>
<defs>
<linearGradient id="paint0_linear_27813_1169" x1="2.6875" y1="-4.86111" x2="37.3306" y2="-2.75042" gradientUnits="userSpaceOnUse">
<stop stop-color="#FF7239"/>
<stop offset="0.363082" stop-color="#FF8136"/>
<stop offset="1" stop-color="#FFA12F"/>
</linearGradient>
<linearGradient id="paint1_linear_27813_1169" x1="1.59375" y1="-2.43056" x2="18.9153" y2="-1.37521" gradientUnits="userSpaceOnUse">
<stop stop-color="#FF7239"/>
<stop offset="0.363082" stop-color="#FF8136"/>
<stop offset="1" stop-color="#FFA12F"/>
</linearGradient>
<clipPath id="clip0_27813_1169">
<rect width="35" height="35" fill="white" transform="translate(0.5)"/>
</clipPath>
</defs>
</svg>
