<svg width="14" height="15" viewBox="0 0 14 15" fill="none" xmlns="http://www.w3.org/2000/svg">
<path d="M11.0332 3.5H1.9668C1.43263 3.5 1 3.95027 1 4.5V10.5C1 11.053 1.43581 11.5 1.9668 11.5H11.0332C11.5629 11.5 12 11.0549 12 10.5V4.5C12 3.95124 11.5691 3.5 11.0332 3.5ZM10.8978 4.16667C10.7003 4.36989 7.301 7.8674 7.18363 7.98816C7.00102 8.17704 6.75824 8.28104 6.5 8.28104C6.24176 8.28104 5.99898 8.17702 5.81577 7.98753C5.73683 7.90631 2.37506 4.44742 2.10219 4.16667H10.8978ZM1.64453 10.3643V4.63611L4.42972 7.50178L1.64453 10.3643ZM2.1026 10.8333L4.8867 7.97193L5.36062 8.45956C5.66497 8.77436 6.0696 8.94771 6.5 8.94771C6.9304 8.94771 7.33503 8.77436 7.63878 8.46018L8.11331 7.97193L10.8974 10.8333H2.1026ZM11.3555 10.3643L8.57028 7.50178L11.3555 4.63611V10.3643Z" fill="#171717"/>
</svg>
