<svg width="14" height="15" viewBox="0 0 14 15" fill="none" xmlns="http://www.w3.org/2000/svg">
<path d="M9.70215 8.54212C9.50247 8.3342 9.26161 8.22303 9.00635 8.22303C8.75314 8.22303 8.51023 8.33214 8.30231 8.54006L7.6518 9.18851C7.59827 9.15969 7.54475 9.13293 7.49329 9.10617C7.41918 9.06911 7.34918 9.03412 7.28948 8.99706C6.68014 8.61005 6.12638 8.10569 5.59527 7.45312C5.33794 7.12786 5.16502 6.85407 5.03945 6.57616C5.20825 6.42177 5.3647 6.2612 5.51704 6.1068C5.57468 6.04916 5.63232 5.98946 5.68996 5.93182C6.12226 5.49952 6.12226 4.93958 5.68996 4.50728L5.12797 3.94529C5.06415 3.88147 4.99827 3.81559 4.93652 3.74972C4.813 3.62209 4.68331 3.49034 4.5495 3.36682C4.34982 3.1692 4.11102 3.06421 3.85987 3.06421C3.60873 3.06421 3.36581 3.1692 3.15995 3.36682C3.1579 3.36888 3.1579 3.36888 3.15584 3.37094L2.45592 4.07703C2.19242 4.34053 2.04214 4.66167 2.0092 5.03428C1.9598 5.63539 2.13684 6.19532 2.2727 6.56175C2.60619 7.46136 3.10437 8.29508 3.84752 9.18851C4.74919 10.2652 5.83406 11.1154 7.07333 11.7144C7.54681 11.9388 8.1788 12.2043 8.88489 12.2496C8.92812 12.2517 8.97341 12.2538 9.01458 12.2538C9.49012 12.2538 9.88948 12.0829 10.2024 11.7432C10.2044 11.7391 10.2086 11.737 10.2106 11.7329C10.3177 11.6032 10.4412 11.4859 10.5709 11.3603C10.6594 11.2759 10.75 11.1874 10.8385 11.0948C11.0423 10.8827 11.1493 10.6357 11.1493 10.3825C11.1493 10.1272 11.0402 9.88226 10.8323 9.6764L9.70215 8.54212ZM10.4391 10.7098C10.4371 10.7098 10.4371 10.7119 10.4391 10.7098C10.3588 10.7963 10.2765 10.8745 10.188 10.961C10.0542 11.0886 9.9183 11.2224 9.79067 11.3727C9.58275 11.595 9.33778 11.7 9.01664 11.7C8.98576 11.7 8.95283 11.7 8.92195 11.6979C8.31054 11.6588 7.74237 11.42 7.31625 11.2162C6.15108 10.6522 5.12797 9.85138 4.27777 8.83649C3.57579 7.99041 3.10643 7.20815 2.79558 6.36824C2.60414 5.85566 2.53414 5.45629 2.56502 5.07957C2.58561 4.83871 2.67824 4.63903 2.84911 4.46817L3.55109 3.76619C3.65196 3.67149 3.759 3.62003 3.86399 3.62003C3.99368 3.62003 4.09867 3.69825 4.16455 3.76413C4.1666 3.76619 4.16866 3.76825 4.17072 3.77031C4.2963 3.88764 4.41569 4.0091 4.54127 4.13879C4.60508 4.20467 4.67096 4.27054 4.73683 4.33848L5.29883 4.90047C5.51704 5.11868 5.51704 5.32042 5.29883 5.53863C5.23913 5.59833 5.18149 5.65803 5.12179 5.71567C4.94887 5.89271 4.78418 6.0574 4.60508 6.21797C4.60097 6.22208 4.59685 6.22414 4.59479 6.22826C4.41775 6.4053 4.45069 6.57822 4.48774 6.69556C4.4898 6.70174 4.49186 6.70791 4.49392 6.71409C4.64008 7.06816 4.84594 7.40166 5.15884 7.79896L5.1609 7.80102C5.72907 8.50094 6.32812 9.04647 6.98893 9.46436C7.07333 9.51789 7.15979 9.56112 7.24214 9.60229C7.31625 9.63934 7.38624 9.67434 7.44594 9.71139C7.45417 9.71551 7.46241 9.72169 7.47064 9.7258C7.54063 9.7608 7.60651 9.77727 7.67444 9.77727C7.8453 9.77727 7.95235 9.67022 7.98735 9.63523L8.69138 8.93119C8.76138 8.8612 8.87254 8.77679 9.00223 8.77679C9.12986 8.77679 9.23485 8.85708 9.29867 8.92707C9.30073 8.92913 9.30073 8.92913 9.30278 8.93119L10.4371 10.0655C10.6491 10.2754 10.6491 10.4916 10.4391 10.7098Z" fill="#171717"/>
<path d="M7.26513 4.82023C7.80448 4.9108 8.29443 5.16607 8.68556 5.5572C9.07669 5.94833 9.3299 6.43828 9.42253 6.97763C9.44518 7.11349 9.56252 7.20819 9.69633 7.20819C9.7128 7.20819 9.72721 7.20613 9.74367 7.20407C9.89601 7.17937 9.99688 7.03527 9.97218 6.88293C9.86101 6.23036 9.55223 5.63543 9.08081 5.16401C8.60939 4.69259 8.01446 4.38381 7.36189 4.27264C7.20955 4.24794 7.06751 4.34881 7.04075 4.49909C7.01398 4.64936 7.1128 4.79552 7.26513 4.82023Z" fill="#171717"/>
<path d="M11.7364 6.80257C11.5532 5.72799 11.0467 4.75016 10.2686 3.97201C9.49045 3.19386 8.51262 2.68745 7.43803 2.50424C7.28776 2.47748 7.14571 2.5804 7.11895 2.73068C7.09425 2.88302 7.19512 3.02506 7.34746 3.05182C8.30676 3.21445 9.18166 3.6694 9.87746 4.36314C10.5733 5.05895 11.0262 5.93385 11.1888 6.89315C11.2114 7.02902 11.3288 7.12371 11.4626 7.12371C11.479 7.12371 11.4935 7.12165 11.5099 7.1196C11.6602 7.09695 11.7631 6.95285 11.7364 6.80257Z" fill="#171717"/>
</svg>
