<svg width="14" height="15" viewBox="0 0 14 15" fill="none" xmlns="http://www.w3.org/2000/svg">
<path d="M11.9603 5.82407H11.9157C11.7259 5.21097 11.428 4.65158 11.044 4.16584C11.0432 4.16499 11.0427 4.16385 11.0419 4.16302C10.0853 2.9549 8.60832 2.20001 7.00102 2.20001C5.39373 2.20001 3.91675 2.9549 2.96018 4.16302C2.95935 4.16385 2.9589 4.16499 2.95808 4.16584C2.57402 4.65158 2.2762 5.21097 2.08638 5.82407H2.04179C1.62109 5.82407 1.27881 6.16636 1.27881 6.58705V8.11298C1.27881 8.53368 1.62109 8.87594 2.04176 8.87594H2.08636C2.27617 9.48904 2.57402 10.0484 2.95806 10.5342C2.95888 10.535 2.95933 10.5362 2.96016 10.537C3.91675 11.7451 5.39373 12.5 7.00102 12.5C8.60832 12.5 10.0853 11.7451 11.0419 10.537C11.0427 10.5362 11.0431 10.535 11.044 10.5342C11.428 10.0484 11.7259 9.48904 11.9157 8.87594H11.9603C12.381 8.87594 12.7232 8.53368 12.7232 8.11298V6.58705C12.7232 6.16636 12.381 5.82407 11.9603 5.82407ZM10.8099 4.4889C11.1106 4.88758 11.3505 5.3361 11.515 5.82407H9.36846C9.29845 5.34082 9.19858 4.89247 9.07164 4.4889H10.8099ZM10.4921 4.10741H8.94018C8.71262 3.51331 8.42268 3.03981 8.09247 2.71132C9.0188 2.9306 9.85297 3.42166 10.4921 4.10741ZM7.19176 2.60448C7.69911 2.71722 8.17388 3.27206 8.52228 4.10743H7.19176V2.60448ZM7.19176 4.4889H8.66485C8.80068 4.88941 8.90914 5.33858 8.9829 5.82407H7.19176V4.4889ZM6.81029 2.60448V4.10743H5.47976C5.82817 3.27206 6.30294 2.71722 6.81029 2.60448ZM6.81029 4.4889V5.82407H5.01915C5.09293 5.33858 5.20139 4.88941 5.3372 4.4889H6.81029ZM5.90958 2.71135C5.57937 3.03984 5.28943 3.51333 5.06186 4.10743H3.50998C4.14908 3.42166 4.98325 2.9306 5.90958 2.71135ZM3.19215 4.4889H4.93041C4.80347 4.89249 4.7036 5.34082 4.63359 5.82407H2.487C2.65158 5.3361 2.89149 4.88758 3.19215 4.4889ZM3.19215 10.2111C2.89147 9.81244 2.65158 9.36391 2.487 8.87594H4.63359C4.7036 9.3592 4.80347 9.80754 4.93041 10.2111H3.19215ZM3.50998 10.5926H5.06186C5.28943 11.1867 5.57937 11.6602 5.90958 11.9887C4.98325 11.7694 4.14908 11.2784 3.50998 10.5926ZM6.81029 12.0955C6.30294 11.9828 5.82817 11.428 5.47976 10.5926H6.81029V12.0955ZM6.81029 10.2111H5.3372C5.20136 9.8106 5.09291 9.36143 5.01915 8.87594H6.81029V10.2111ZM7.19176 12.0955V10.5926H8.52228C8.17388 11.428 7.69911 11.9828 7.19176 12.0955ZM7.19176 10.2111V8.87594H8.9829C8.90914 9.36143 8.80066 9.8106 8.66485 10.2111H7.19176ZM8.09247 11.9887C8.42268 11.6602 8.71262 11.1867 8.94018 10.5926H10.4921C9.85297 11.2784 9.0188 11.7694 8.09247 11.9887ZM10.8099 10.2111H9.07164C9.19858 9.80752 9.29845 9.3592 9.36846 8.87594H11.515C11.3505 9.36391 11.1106 9.81244 10.8099 10.2111ZM12.3418 8.11296C12.3418 8.32336 12.1707 8.49445 11.9603 8.49445H2.04176C1.83136 8.49445 1.66027 8.32336 1.66027 8.11296V6.58703C1.66027 6.37663 1.83136 6.20554 2.04176 6.20554H11.7765C11.7767 6.20554 11.7769 6.20563 11.7771 6.20563C11.7773 6.20563 11.7775 6.20554 11.7778 6.20554H11.9603C12.1707 6.20554 12.3418 6.37663 12.3418 6.58703L12.3418 8.11296Z" fill="black"/>
<path d="M5.15371 6.59678C5.0535 6.56307 4.94565 6.61754 4.91239 6.71739L4.66205 7.46843L4.3032 6.87033C4.23429 6.75539 4.04503 6.75539 3.97612 6.87033L3.61725 7.46843L3.3669 6.71739C3.33364 6.61754 3.22599 6.56307 3.12559 6.59678C3.02565 6.63013 2.97162 6.73816 3.00497 6.83809L3.38646 7.98254C3.41002 8.05313 3.47261 8.10371 3.54666 8.1118C3.61969 8.11954 3.6926 8.08413 3.73098 8.02034L4.13965 7.33926L4.54832 8.02036C4.58305 8.07818 4.64537 8.11294 4.71187 8.11294C4.71876 8.11294 4.72575 8.11256 4.73264 8.11182C4.80667 8.10371 4.86925 8.05315 4.89284 7.98256L5.27432 6.83812C5.30765 6.73816 5.25363 6.63013 5.15371 6.59678Z" fill="black"/>
<path d="M8.01479 6.59678C7.9143 6.56307 7.80674 6.61754 7.77348 6.71739L7.52313 7.46843L7.16429 6.87033C7.09537 6.75539 6.90612 6.75539 6.8372 6.87033L6.47833 7.46843L6.22799 6.71739C6.19464 6.61754 6.08688 6.56307 5.98667 6.59678C5.88673 6.63013 5.83271 6.73816 5.86606 6.83809L6.24755 7.98254C6.27111 8.05313 6.33369 8.10371 6.40775 8.1118C6.48086 8.11954 6.55368 8.08413 6.59206 8.02034L7.00073 7.33926L7.4094 8.02036C7.44414 8.07818 7.50646 8.11294 7.57295 8.11294C7.57984 8.11294 7.58684 8.11256 7.59372 8.11182C7.66775 8.10371 7.73034 8.05315 7.75392 7.98256L8.13541 6.83812C8.16874 6.73816 8.11471 6.63013 8.01479 6.59678Z" fill="black"/>
<path d="M10.8759 6.59678C10.7757 6.56307 10.6678 6.61754 10.6346 6.71739L10.3842 7.46843L10.0254 6.87033C9.95646 6.75539 9.7672 6.75539 9.69829 6.87033L9.33942 7.46843L9.08907 6.71739C9.05581 6.61754 8.94816 6.56307 8.84776 6.59678C8.74782 6.63013 8.69379 6.73816 8.72714 6.83809L9.10863 7.98254C9.13219 8.05313 9.19478 8.10371 9.26883 8.1118C9.34203 8.11954 9.41477 8.08413 9.45315 8.02034L9.86182 7.33926L10.2705 8.02036C10.3052 8.07818 10.3675 8.11294 10.434 8.11294C10.4409 8.11294 10.4479 8.11256 10.4548 8.11182C10.5288 8.10371 10.5914 8.05315 10.615 7.98256L10.9965 6.83812C11.0298 6.73816 10.9758 6.63013 10.8759 6.59678Z" fill="black"/>
</svg>
